#!OML:ASF F:\VICON\USERDATA\INSTALL\rory3\rory3.ASF
:FULLY-SPECIFIED
:DEGREES
946
root -10.8724 17.8301 5.05927 178.635 58.8056 174.528
lowerback 3.33968 1.34764 -6.95687
upperback 1.41324 1.65474 -2.0651
thorax -0.544699 0.850063 1.70326
lowerneck -6.75301 -2.19599 -6.26382
upperneck 28.8576 -1.10329 2.07023
head 10.3836 -0.417493 1.80062
rclavicle 9.69075e-014 -1.59028e-014
rhumerus -36.204 -1.60944 -83.14
rradius 31.6411
rwrist -6.10703
rhand -12.9004 13.5997
rfingers 7.12502
rthumb 13.1892 -15.9631
lclavicle 9.69075e-014 -1.59028e-014
lhumerus -34.0921 -4.14842 81.921
lradius 46.0657
lwrist 20.863
lhand -6.8856 28.0007
lfingers 7.12502
lthumb 18.9808 57.0946
rfemur -36.0559 -1.22765 16.8265
rtibia 60.789
rfoot -6.41045 -3.30369
rtoes -19.2552
lfemur -6.5199 -3.84485 -29.2949
ltibia 20.6182
lfoot -18.3627 5.13262
ltoes -2.48399
947
root -10.8152 17.825 5.02144 178.76 58.6753 174.66
lowerback 3.31916 1.34612 -6.92137
upperback 1.44724 1.65708 -2.02804
thorax -0.498481 0.848889 1.72268
lowerneck -6.7958 -2.26704 -6.22413
upperneck 28.9425 -1.20773 2.09261
head 10.4282 -0.45753 1.79208
rclavicle 2.44505e-014 3.81667e-014
rhumerus -36.3354 -1.94035 -82.9987
rradius 31.5515
rwrist -5.78472
rhand -12.9366 13.4837
rfingers 7.12502
rthumb 13.1543 -16.0813
lclavicle 2.44505e-014 3.81667e-014
lhumerus -34.3072 -4.37033 81.9527
lradius 45.7245
lwrist 20.6864
lhand -7.16842 28.4414
lfingers 7.12502
lthumb 18.7088 57.5617
rfemur -36.0372 -0.950678 16.9266
rtibia 59.2287
rfoot -7.01124 -3.38776
rtoes -19.3748
lfemur -6.28652 -3.80241 -29.2497
ltibia 20.6449
lfoot -18.7356 5.00374
ltoes -3.21234
948
root -10.7565 17.821 4.98175 178.763 58.5148 174.693
lowerback 3.31504 1.31965 -6.93003
upperback 1.49624 1.62518 -1.99644
thorax -0.444022 0.830403 1.76225
lowerneck -6.7791 -2.30855 -6.25981
upperneck 28.9859 -1.26839 2.14015
head 10.4449 -0.48251 1.80972
rclavicle 2.42517e-014 4.37326e-014
rhumerus -36.4472 -2.03003 -82.9788
rradius 31.4719
rwrist -5.7776
rhand -12.9537 13.6266
rfingers 7.12502
rthumb 13.1378 -15.9396
lclavicle 2.42517e-014 4.37326e-014
lhumerus -34.5355 -4.41069 81.9392
lradius 45.1542
lwrist 20.3141
lhand -7.37163 28.1108
lfingers 7.12502
lthumb 18.5134 57.2498
rfemur -35.9251 -0.731785 16.9501
rtibia 57.6098
rfoot -7.46488 -3.62138
rtoes -19.4788
lfemur -5.93993 -3.99887 -29.2829
ltibia 20.5879
lfoot -19.0656 5.07812
ltoes -2.85866
949
root -10.7008 17.8091 4.94102 178.78 58.3424 174.722
lowerback 3.34951 1.29754 -6.9031
upperback 1.52124 1.59445 -1.95941
thorax -0.435405 0.814062 1.78629
lowerneck -6.70665 -2.35316 -6.25126
upperneck 28.9757 -1.31765 2.08244
head 10.4293 -0.509122 1.78237
rclavicle 1.07344e-014 -5.1684e-014
rhumerus -36.5868 -2.14315 -82.9021
rradius 31.4142
rwrist -5.76165
rhand -12.9931 13.5928
rfingers 7.12502
rthumb 13.0998 -15.9757
lclavicle 1.07344e-014 -5.1684e-014
lhumerus -34.7821 -4.37286 81.92
lradius 44.5683
lwrist 20.0338
lhand -7.22287 27.6441
lfingers 7.12502
lthumb 18.6565 56.7695
rfemur -35.86 -0.527822 16.9639
rtibia 55.9645
rfoot -7.47735 -4.27169
rtoes -20.2243
lfemur -5.59226 -4.17106 -29.3248
ltibia 20.4595
lfoot -19.2386 5.1377
ltoes -2.30829
950
root -10.6446 17.8041 4.9 178.84 58.2534 174.796
lowerback 3.38875 1.29938 -6.86989
upperback 1.5462 1.59424 -1.8881
thorax -0.432875 0.812504 1.84072
lowerneck -6.69505 -2.3861 -6.31354
upperneck 28.972 -1.34779 2.06484
head 10.4284 -0.531074 1.78357
rclavicle -6.67916e-014 1.59028e-014
rhumerus -36.709 -2.28545 -82.7284
rradius 31.3525
rwrist -5.63198
rhand -12.8167 13.6927
rfingers 7.12502
rthumb 13.2698 -15.8649
lclavicle -6.67916e-014 1.59028e-014
lhumerus -35.0232 -4.29594 81.9565
lradius 44.0515
lwrist 19.8841
lhand -7.15345 27.7166
lfingers 7.12502
lthumb 18.7232 56.8356
rfemur -35.7525 -0.255228 17.0125
rtibia 54.198
rfoot -7.37519 -4.88238
rtoes -20.7282
lfemur -5.23311 -4.26209 -29.3514
ltibia 20.295
lfoot -19.3053 5.29765
ltoes -2.50694
951
root -10.5859 17.7991 4.85677 178.801 58.2268 174.757
lowerback 3.34498 1.32037 -6.8723
upperback 1.60512 1.62965 -1.85509
thorax -0.351357 0.826555 1.8765
lowerneck -6.69078 -2.42041 -6.29915
upperneck 28.9219 -1.38883 2.00889
head 10.4106 -0.555541 1.75559
rclavicle 3.26007e-014 -2.06736e-014
rhumerus -36.8094 -2.3662 -82.6292
rradius 31.3031
rwrist -5.59271
rhand -12.6699 13.7669
rfingers 7.12502
rthumb 13.4114 -15.7814
lclavicle 3.26007e-014 -2.06736e-014
lhumerus -35.2169 -4.25651 81.9722
lradius 43.552
lwrist 19.7458
lhand -7.20186 28.0044
lfingers 7.12502
lthumb 18.6767 57.1278
rfemur -35.6074 0.0703629 16.9817
rtibia 52.3694
rfoot -7.50294 -5.2522
rtoes -20.2606
lfemur -4.87486 -4.26476 -29.4342
ltibia 20.1421
lfoot -19.4646 5.23774
ltoes -2.85667
